<?xml version="1.0" encoding="UTF-8"?>
<svg id="Layer_2" data-name="Layer 2" xmlns="http://www.w3.org/2000/svg" viewBox="0 0 122.74 164.35">
  <defs>
    <style>
      .cls-1 {
        fill: #FCFCFC;
        stroke-width: 0px;
      }
    </style>
  </defs>
  <g id="Layer_1-2" data-name="Layer 1">
    <path class="cls-1" d="M67.02,46.92l55.72-23.32V0L47.81,31.44c-8.3-4.4-15.33-6.53-22.85-7.87-11.3-2.02-18.71,2.3-22.64,10.49-2.28,4.74-3.76,10.87-.13,21.77,2.38,7.15,12.73,19.68,25.26,31.47,21.47,20.2,29.74,33.77,33.26,42.7,1.67,4.26,1.85,9.83-1.85,11.55-4.03,1.88-8.43,1.82-15.32-.57-6.89-2.39-12.85-7.44-18.45-13.29-6.69-8.01-11.74-17.43-13.15-31.72-.3-3.05-1.38-5.61-2.97-3.13-4.54,7.08-5.04,17.94.68,30.14,6.1,13.01,13.22,21.46,23.17,29.04,10.51,7.54,20.39,11.44,27.57,12.19,1.92.2,3.25.35,6.92-.81l55.44-23.23v-23.44l-47.69,20.09c-1.81-5.61-4.8-11.71-9.03-18.3-3.1-5.08-7.45-10.66-13.05-16.75-5.6-6.08-10.58-10.73-16.35-16.46-4.9-4.85-14.53-15.42-19.46-23.37-3.64-5.87,1.07-10.65,5.97-12.34,5.43-1.87,12.66-1.14,21.39,1.25,8.73,2.39,12.53,4.51,18.65,9.87,4.6,4.85,7.13,11.75,3.2,14.77-2.01,1.54-4.35,2.5-7.26,3.44-2.65.86-5.7,2.24-3.15,6.23,3.22,5.04,10.31,10.84,16.32,10.85l50.47-21.31v-23.16l-44.65,18.71c-1.82-9.18-5.65-16.33-11.07-23.33Z"/>
  </g>
</svg>